<mxfile host="app.diagrams.net" agent="Mozilla/5.0 (Windows NT 10.0; Win64; x64) AppleWebKit/537.36 (KHTML, like Gecko) Chrome/131.0.0.0 Safari/537.36" version="24.9.0">
  <diagram name="페이지-1" id="-z66yAtNatfDnL_aKimk">
    <mxGraphModel dx="1221" dy="666" grid="1" gridSize="10" guides="1" tooltips="1" connect="1" arrows="1" fold="1" page="1" pageScale="1" pageWidth="827" pageHeight="1169" math="0" shadow="0">
      <root>
        <mxCell id="0" />
        <mxCell id="1" parent="0" />
        <mxCell id="0NGauNDOmkKS-pxr3Ci8-7" value="Raw Data" style="swimlane;whiteSpace=wrap;html=1;" vertex="1" parent="1">
          <mxGeometry x="30" y="40" width="750" height="140" as="geometry" />
        </mxCell>
        <mxCell id="0NGauNDOmkKS-pxr3Ci8-9" value="CRSP" style="rounded=0;whiteSpace=wrap;html=1;" vertex="1" parent="0NGauNDOmkKS-pxr3Ci8-7">
          <mxGeometry x="40" y="40" width="120" height="60" as="geometry" />
        </mxCell>
        <mxCell id="0NGauNDOmkKS-pxr3Ci8-10" value="Compustat" style="rounded=0;whiteSpace=wrap;html=1;" vertex="1" parent="0NGauNDOmkKS-pxr3Ci8-7">
          <mxGeometry x="210" y="40" width="120" height="60" as="geometry" />
        </mxCell>
        <mxCell id="0NGauNDOmkKS-pxr3Ci8-11" value="" style="rounded=0;whiteSpace=wrap;html=1;" vertex="1" parent="0NGauNDOmkKS-pxr3Ci8-7">
          <mxGeometry x="370" y="40" width="120" height="60" as="geometry" />
        </mxCell>
        <mxCell id="0NGauNDOmkKS-pxr3Ci8-12" value="Firm characteristics" style="swimlane;whiteSpace=wrap;html=1;" vertex="1" parent="1">
          <mxGeometry x="30" y="210" width="750" height="140" as="geometry" />
        </mxCell>
        <mxCell id="0NGauNDOmkKS-pxr3Ci8-13" value="" style="rounded=0;whiteSpace=wrap;html=1;" vertex="1" parent="0NGauNDOmkKS-pxr3Ci8-12">
          <mxGeometry x="40" y="40" width="120" height="60" as="geometry" />
        </mxCell>
        <mxCell id="0NGauNDOmkKS-pxr3Ci8-14" value="Compustat" style="rounded=0;whiteSpace=wrap;html=1;" vertex="1" parent="0NGauNDOmkKS-pxr3Ci8-12">
          <mxGeometry x="210" y="40" width="120" height="60" as="geometry" />
        </mxCell>
        <mxCell id="0NGauNDOmkKS-pxr3Ci8-15" value="" style="rounded=0;whiteSpace=wrap;html=1;" vertex="1" parent="0NGauNDOmkKS-pxr3Ci8-12">
          <mxGeometry x="370" y="40" width="120" height="60" as="geometry" />
        </mxCell>
        <mxCell id="0NGauNDOmkKS-pxr3Ci8-16" value="" style="rounded=1;absoluteArcSize=1;html=1;arcSize=10;" vertex="1" parent="1">
          <mxGeometry x="270" y="410" width="100" height="100" as="geometry" />
        </mxCell>
        <mxCell id="0NGauNDOmkKS-pxr3Ci8-17" value="main" style="html=1;shape=mxgraph.er.anchor;whiteSpace=wrap;" vertex="1" parent="0NGauNDOmkKS-pxr3Ci8-16">
          <mxGeometry width="50" height="100" as="geometry" />
        </mxCell>
        <mxCell id="0NGauNDOmkKS-pxr3Ci8-18" value="sub" style="rounded=1;absoluteArcSize=1;html=1;arcSize=10;whiteSpace=wrap;points=[];strokeColor=inherit;fillColor=inherit;" vertex="1" parent="1">
          <mxGeometry x="540" y="410" width="45" height="90" as="geometry" />
        </mxCell>
      </root>
    </mxGraphModel>
  </diagram>
</mxfile>
